<svg width="96" height="96" viewBox="0 0 96 96" fill="none" xmlns="http://www.w3.org/2000/svg">
  <defs>
    <linearGradient id="bg" x1="12" y1="10" x2="84" y2="88">
      <stop offset="0%" stop-color="#FFF8ED" />
      <stop offset="100%" stop-color="#E6D7C3" />
    </linearGradient>
  </defs>
  <rect x="8" y="8" width="80" height="80" rx="24" fill="url(#bg)" />
  <rect x="8.75" y="8.75" width="78.5" height="78.5" rx="23.25" stroke="#E8DAC8" stroke-width="1.5" />
  <path d="M 12.0 30.91 L 13.62 28.58 L 17.4 26.42 L 26.57 24.44 L 29.09 23.0 L 30.17 24.26 L 32.32 23.18 L 33.58 23.54 L 36.28 28.04 L 42.4 31.99 L 47.07 31.81 L 56.6 29.12 L 62.72 28.94 L 67.04 29.65 L 72.79 32.17 L 79.27 38.83 L 81.78 43.86 L 82.86 48.36 L 82.14 56.09 L 76.03 67.24 L 75.49 71.92 L 73.33 73.0 L 64.52 72.28 L 68.65 70.3 L 68.29 66.71 L 68.12 69.76 L 67.04 71.02 L 59.66 71.56 L 58.76 70.3 L 61.82 69.94 L 63.26 68.14 L 62.0 64.55 L 49.23 63.11 L 46.35 63.29 L 45.27 68.68 L 42.94 72.82 L 36.64 72.82 L 35.92 72.1 L 38.8 70.12 L 38.44 64.19 L 34.66 71.74 L 28.19 71.74 L 27.83 70.66 L 30.88 69.76 L 31.78 65.63 L 26.75 49.44 L 23.15 43.68 L 13.26 37.57 Z" fill="#234B45" />
</svg>
